<svg id="visual" viewBox="0 0 900 150" width="900" height="150" xmlns="http://www.w3.org/2000/svg" xmlns:xlink="http://www.w3.org/1999/xlink" version="1.1"><path d="M0 34L13.7 35C27.3 36 54.7 38 82 39.3C109.3 40.7 136.7 41.3 163.8 38.3C191 35.3 218 28.7 245.2 28.2C272.3 27.7 299.7 33.3 327 36.8C354.3 40.3 381.7 41.7 409 42.2C436.3 42.7 463.7 42.3 491 41.2C518.3 40 545.7 38 573 38C600.3 38 627.7 40 654.8 38C682 36 709 30 736.2 28.2C763.3 26.3 790.7 28.7 818 31.8C845.3 35 872.7 39 886.3 41L900 43L900 0L886.3 0C872.7 0 845.3 0 818 0C790.7 0 763.3 0 736.2 0C709 0 682 0 654.8 0C627.7 0 600.3 0 573 0C545.7 0 518.3 0 491 0C463.7 0 436.3 0 409 0C381.7 0 354.3 0 327 0C299.7 0 272.3 0 245.2 0C218 0 191 0 163.8 0C136.7 0 109.3 0 82 0C54.7 0 27.3 0 13.7 0L0 0Z" fill="#ffffff"></path><path d="M0 67L13.7 68.8C27.3 70.7 54.7 74.3 82 79.7C109.3 85 136.7 92 163.8 95.5C191 99 218 99 245.2 96.8C272.3 94.7 299.7 90.3 327 88C354.3 85.7 381.7 85.3 409 83C436.3 80.7 463.7 76.3 491 73.2C518.3 70 545.7 68 573 69C600.3 70 627.7 74 654.8 75.5C682 77 709 76 736.2 77.7C763.3 79.3 790.7 83.7 818 83.2C845.3 82.7 872.7 77.3 886.3 74.7L900 72L900 41L886.3 39C872.7 37 845.3 33 818 29.8C790.7 26.7 763.3 24.3 736.2 26.2C709 28 682 34 654.8 36C627.7 38 600.3 36 573 36C545.7 36 518.3 38 491 39.2C463.7 40.3 436.3 40.7 409 40.2C381.7 39.7 354.3 38.3 327 34.8C299.7 31.3 272.3 25.7 245.2 26.2C218 26.7 191 33.3 163.8 36.3C136.7 39.3 109.3 38.7 82 37.3C54.7 36 27.3 34 13.7 33L0 32Z" fill="#dfe8cf"></path><path d="M0 126L13.7 126.5C27.3 127 54.7 128 82 128C109.3 128 136.7 127 163.8 128C191 129 218 132 245.2 133.7C272.3 135.3 299.7 135.7 327 134.3C354.3 133 381.7 130 409 129.5C436.3 129 463.7 131 491 131.3C518.3 131.7 545.7 130.3 573 130.7C600.3 131 627.7 133 654.8 132.2C682 131.3 709 127.7 736.2 127.7C763.3 127.7 790.7 131.3 818 131.8C845.3 132.3 872.7 129.7 886.3 128.3L900 127L900 70L886.3 72.7C872.7 75.3 845.3 80.7 818 81.2C790.7 81.7 763.3 77.3 736.2 75.7C709 74 682 75 654.8 73.5C627.7 72 600.3 68 573 67C545.7 66 518.3 68 491 71.2C463.7 74.3 436.3 78.7 409 81C381.7 83.3 354.3 83.7 327 86C299.7 88.3 272.3 92.7 245.2 94.8C218 97 191 97 163.8 93.5C136.7 90 109.3 83 82 77.7C54.7 72.3 27.3 68.7 13.7 66.8L0 65Z" fill="#bfd2a1"></path><path d="M0 151L13.7 151C27.3 151 54.7 151 82 151C109.3 151 136.7 151 163.8 151C191 151 218 151 245.2 151C272.3 151 299.7 151 327 151C354.3 151 381.7 151 409 151C436.3 151 463.7 151 491 151C518.3 151 545.7 151 573 151C600.3 151 627.7 151 654.8 151C682 151 709 151 736.2 151C763.3 151 790.7 151 818 151C845.3 151 872.7 151 886.3 151L900 151L900 125L886.3 126.3C872.7 127.7 845.3 130.3 818 129.8C790.7 129.3 763.3 125.7 736.2 125.7C709 125.7 682 129.3 654.8 130.2C627.7 131 600.3 129 573 128.7C545.7 128.3 518.3 129.7 491 129.3C463.7 129 436.3 127 409 127.5C381.7 128 354.3 131 327 132.3C299.7 133.7 272.3 133.3 245.2 131.7C218 130 191 127 163.8 126C136.7 125 109.3 126 82 126C54.7 126 27.3 125 13.7 124.5L0 124Z" fill="#9fbb73"></path></svg>