<svg id="visual" viewBox="0 0 900 150" width="900" height="150" xmlns="http://www.w3.org/2000/svg" xmlns:xlink="http://www.w3.org/1999/xlink" version="1.1"><path d="M0 33L13.7 30.7C27.3 28.3 54.7 23.7 82 22.3C109.3 21 136.7 23 163.8 25.3C191 27.7 218 30.3 245.2 31.3C272.3 32.3 299.7 31.7 327 31.3C354.3 31 381.7 31 409 29.5C436.3 28 463.7 25 491 23C518.3 21 545.7 20 573 20C600.3 20 627.7 21 654.8 23C682 25 709 28 736.2 28.8C763.3 29.7 790.7 28.3 818 25.8C845.3 23.3 872.7 19.7 886.3 17.8L900 16L900 0L886.3 0C872.7 0 845.3 0 818 0C790.7 0 763.3 0 736.2 0C709 0 682 0 654.8 0C627.7 0 600.3 0 573 0C545.7 0 518.3 0 491 0C463.7 0 436.3 0 409 0C381.7 0 354.3 0 327 0C299.7 0 272.3 0 245.2 0C218 0 191 0 163.8 0C136.7 0 109.3 0 82 0C54.7 0 27.3 0 13.7 0L0 0Z" fill="#f3b664"></path><path d="M0 49L13.7 50.8C27.3 52.7 54.7 56.3 82 59.3C109.3 62.3 136.7 64.7 163.8 64.8C191 65 218 63 245.2 62.5C272.3 62 299.7 63 327 63.2C354.3 63.3 381.7 62.7 409 62C436.3 61.3 463.7 60.7 491 59.3C518.3 58 545.7 56 573 54.2C600.3 52.3 627.7 50.7 654.8 52.8C682 55 709 61 736.2 63.2C763.3 65.3 790.7 63.7 818 60.2C845.3 56.7 872.7 51.3 886.3 48.7L900 46L900 14L886.3 15.8C872.7 17.7 845.3 21.3 818 23.8C790.7 26.3 763.3 27.7 736.2 26.8C709 26 682 23 654.8 21C627.7 19 600.3 18 573 18C545.7 18 518.3 19 491 21C463.7 23 436.3 26 409 27.5C381.7 29 354.3 29 327 29.3C299.7 29.7 272.3 30.3 245.2 29.3C218 28.3 191 25.7 163.8 23.3C136.7 21 109.3 19 82 20.3C54.7 21.7 27.3 26.3 13.7 28.7L0 31Z" fill="#fbce97"></path><path d="M0 112L13.7 109.3C27.3 106.7 54.7 101.3 82 100.3C109.3 99.3 136.7 102.7 163.8 105.2C191 107.7 218 109.3 245.2 111.2C272.3 113 299.7 115 327 113C354.3 111 381.7 105 409 104.7C436.3 104.3 463.7 109.7 491 110.3C518.3 111 545.7 107 573 107.3C600.3 107.7 627.7 112.3 654.8 115.7C682 119 709 121 736.2 117C763.3 113 790.7 103 818 99C845.3 95 872.7 97 886.3 98L900 99L900 44L886.3 46.7C872.7 49.3 845.3 54.7 818 58.2C790.7 61.7 763.3 63.3 736.2 61.2C709 59 682 53 654.8 50.8C627.7 48.7 600.3 50.3 573 52.2C545.7 54 518.3 56 491 57.3C463.7 58.7 436.3 59.3 409 60C381.7 60.7 354.3 61.3 327 61.2C299.7 61 272.3 60 245.2 60.5C218 61 191 63 163.8 62.8C136.7 62.7 109.3 60.3 82 57.3C54.7 54.3 27.3 50.7 13.7 48.8L0 47Z" fill="#ffe6cb"></path><path d="M0 151L13.7 151C27.3 151 54.7 151 82 151C109.3 151 136.7 151 163.8 151C191 151 218 151 245.2 151C272.3 151 299.7 151 327 151C354.3 151 381.7 151 409 151C436.3 151 463.7 151 491 151C518.3 151 545.7 151 573 151C600.3 151 627.7 151 654.8 151C682 151 709 151 736.2 151C763.3 151 790.7 151 818 151C845.3 151 872.7 151 886.3 151L900 151L900 97L886.3 96C872.7 95 845.3 93 818 97C790.7 101 763.3 111 736.2 115C709 119 682 117 654.8 113.7C627.7 110.3 600.3 105.7 573 105.3C545.7 105 518.3 109 491 108.3C463.7 107.7 436.3 102.3 409 102.7C381.7 103 354.3 109 327 111C299.7 113 272.3 111 245.2 109.2C218 107.3 191 105.7 163.8 103.2C136.7 100.7 109.3 97.3 82 98.3C54.7 99.3 27.3 104.7 13.7 107.3L0 110Z" fill="#ffffff"></path></svg>